<mxfile host="app.diagrams.net" agent="Mozilla/5.0 (Macintosh; Intel Mac OS X 10_15_7) AppleWebKit/537.36 (KHTML, like Gecko) Chrome/138.0.0.0 Safari/537.36" version="28.0.7">
  <diagram name="Page-1" id="EqEseUjB6EhwFP1imNWN">
    <mxGraphModel dx="2136" dy="849" grid="1" gridSize="10" guides="1" tooltips="1" connect="1" arrows="1" fold="1" page="1" pageScale="1" pageWidth="850" pageHeight="1100" background="none" math="0" shadow="0">
      <root>
        <mxCell id="0" />
        <mxCell id="1" parent="0" />
        <mxCell id="4IVgv2YwJj3yk9_aXbhd-1" value="Transaction" style="swimlane;fontStyle=1;align=center;verticalAlign=top;childLayout=stackLayout;horizontal=1;startSize=26;horizontalStack=0;resizeParent=1;resizeParentMax=0;resizeLast=0;collapsible=1;marginBottom=0;whiteSpace=wrap;html=1;" parent="1" vertex="1">
          <mxGeometry x="94" y="84" width="170" height="210" as="geometry" />
        </mxCell>
        <mxCell id="giLxtFIxru5S8UG1Ptxc-1" style="edgeStyle=orthogonalEdgeStyle;rounded=0;orthogonalLoop=1;jettySize=auto;html=1;entryX=0.5;entryY=0;entryDx=0;entryDy=0;endArrow=none;startFill=0;endFill=0;" parent="4IVgv2YwJj3yk9_aXbhd-1" source="4IVgv2YwJj3yk9_aXbhd-2" target="4IVgv2YwJj3yk9_aXbhd-1" edge="1">
          <mxGeometry relative="1" as="geometry">
            <mxPoint x="-83" y="-104" as="targetPoint" />
            <Array as="points">
              <mxPoint x="-53" y="98" />
              <mxPoint x="-53" y="-44" />
              <mxPoint x="85" y="-44" />
            </Array>
          </mxGeometry>
        </mxCell>
        <mxCell id="giLxtFIxru5S8UG1Ptxc-4" value="is transfer to" style="edgeLabel;html=1;align=center;verticalAlign=middle;resizable=0;points=[];" parent="giLxtFIxru5S8UG1Ptxc-1" vertex="1" connectable="0">
          <mxGeometry x="0.2042" y="-2" relative="1" as="geometry">
            <mxPoint as="offset" />
          </mxGeometry>
        </mxCell>
        <mxCell id="4IVgv2YwJj3yk9_aXbhd-2" value="- id: string&lt;div&gt;- amount: number&lt;/div&gt;&lt;div&gt;- date: Date&lt;/div&gt;&lt;div&gt;&lt;span style=&quot;background-color: transparent; color: light-dark(rgb(0, 0, 0), rgb(255, 255, 255));&quot;&gt;- description: string&lt;/span&gt;&lt;/div&gt;&lt;div&gt;- notes: string&lt;/div&gt;&lt;div&gt;- isTransfer: boolean&lt;/div&gt;&lt;div&gt;- creationDate: Date&lt;/div&gt;&lt;div&gt;-&amp;nbsp;updateDate: Date&lt;/div&gt;" style="text;strokeColor=none;fillColor=none;align=left;verticalAlign=top;spacingLeft=4;spacingRight=4;overflow=hidden;rotatable=0;points=[[0,0.5],[1,0.5]];portConstraint=eastwest;whiteSpace=wrap;html=1;" parent="4IVgv2YwJj3yk9_aXbhd-1" vertex="1">
          <mxGeometry y="26" width="170" height="144" as="geometry" />
        </mxCell>
        <mxCell id="4IVgv2YwJj3yk9_aXbhd-3" value="" style="line;strokeWidth=1;fillColor=none;align=left;verticalAlign=middle;spacingTop=-1;spacingLeft=3;spacingRight=3;rotatable=0;labelPosition=right;points=[];portConstraint=eastwest;strokeColor=inherit;" parent="4IVgv2YwJj3yk9_aXbhd-1" vertex="1">
          <mxGeometry y="170" width="170" height="40" as="geometry" />
        </mxCell>
        <mxCell id="4IVgv2YwJj3yk9_aXbhd-19" value="Category" style="swimlane;fontStyle=1;align=center;verticalAlign=top;childLayout=stackLayout;horizontal=1;startSize=26;horizontalStack=0;resizeParent=1;resizeParentMax=0;resizeLast=0;collapsible=1;marginBottom=0;whiteSpace=wrap;html=1;" parent="1" vertex="1">
          <mxGeometry x="364" y="119" width="170" height="140" as="geometry" />
        </mxCell>
        <mxCell id="4IVgv2YwJj3yk9_aXbhd-20" value="- id: string&lt;div&gt;- name: string&lt;/div&gt;&lt;div&gt;- icon: string&lt;/div&gt;" style="text;strokeColor=none;fillColor=none;align=left;verticalAlign=top;spacingLeft=4;spacingRight=4;overflow=hidden;rotatable=0;points=[[0,0.5],[1,0.5]];portConstraint=eastwest;whiteSpace=wrap;html=1;" parent="4IVgv2YwJj3yk9_aXbhd-19" vertex="1">
          <mxGeometry y="26" width="170" height="74" as="geometry" />
        </mxCell>
        <mxCell id="4IVgv2YwJj3yk9_aXbhd-21" value="" style="line;strokeWidth=1;fillColor=none;align=left;verticalAlign=middle;spacingTop=-1;spacingLeft=3;spacingRight=3;rotatable=0;labelPosition=right;points=[];portConstraint=eastwest;strokeColor=inherit;" parent="4IVgv2YwJj3yk9_aXbhd-19" vertex="1">
          <mxGeometry y="100" width="170" height="40" as="geometry" />
        </mxCell>
        <mxCell id="4IVgv2YwJj3yk9_aXbhd-22" style="edgeStyle=orthogonalEdgeStyle;rounded=0;orthogonalLoop=1;jettySize=auto;html=1;entryX=0;entryY=0.5;entryDx=0;entryDy=0;exitX=1;exitY=0.5;exitDx=0;exitDy=0;" parent="1" source="4IVgv2YwJj3yk9_aXbhd-2" target="4IVgv2YwJj3yk9_aXbhd-20" edge="1">
          <mxGeometry relative="1" as="geometry" />
        </mxCell>
        <mxCell id="4IVgv2YwJj3yk9_aXbhd-24" value="0..1" style="text;html=1;align=center;verticalAlign=middle;resizable=0;points=[];autosize=1;strokeColor=none;fillColor=none;" parent="1" vertex="1">
          <mxGeometry x="324" y="152" width="40" height="30" as="geometry" />
        </mxCell>
        <mxCell id="4IVgv2YwJj3yk9_aXbhd-49" style="edgeStyle=orthogonalEdgeStyle;rounded=0;orthogonalLoop=1;jettySize=auto;html=1;entryX=0.5;entryY=1;entryDx=0;entryDy=0;startArrow=classic;startFill=1;endArrow=none;endFill=0;exitX=0.5;exitY=0;exitDx=0;exitDy=0;" parent="1" source="E6XDSwYtZxgFJLBzwyTR-1" target="4IVgv2YwJj3yk9_aXbhd-1" edge="1">
          <mxGeometry relative="1" as="geometry">
            <mxPoint x="178.5" y="390" as="sourcePoint" />
          </mxGeometry>
        </mxCell>
        <mxCell id="4IVgv2YwJj3yk9_aXbhd-50" value="0..*" style="text;html=1;align=center;verticalAlign=middle;resizable=0;points=[];autosize=1;strokeColor=none;fillColor=none;" parent="1" vertex="1">
          <mxGeometry x="178" y="294" width="40" height="30" as="geometry" />
        </mxCell>
        <mxCell id="4IVgv2YwJj3yk9_aXbhd-55" value="0..*" style="text;html=1;align=center;verticalAlign=middle;resizable=0;points=[];autosize=1;strokeColor=none;fillColor=none;" parent="1" vertex="1">
          <mxGeometry x="264" y="152" width="40" height="30" as="geometry" />
        </mxCell>
        <mxCell id="4IVgv2YwJj3yk9_aXbhd-57" value="&lt;div&gt;&lt;i style=&quot;font-weight: 400;&quot;&gt;&amp;lt;&amp;lt;Enum&amp;gt;&amp;gt;&lt;/i&gt;&lt;br&gt;&lt;/div&gt;CategoryType" style="swimlane;fontStyle=1;align=center;verticalAlign=top;childLayout=stackLayout;horizontal=1;startSize=40;horizontalStack=0;resizeParent=1;resizeParentMax=0;resizeLast=0;collapsible=1;marginBottom=0;whiteSpace=wrap;html=1;" parent="1" vertex="1">
          <mxGeometry x="643" y="117" width="170" height="130" as="geometry">
            <mxRectangle x="205" y="40" width="130" height="30" as="alternateBounds" />
          </mxGeometry>
        </mxCell>
        <mxCell id="4IVgv2YwJj3yk9_aXbhd-58" value="&lt;div&gt;INCOME&lt;/div&gt;&lt;div&gt;EXPENSE&lt;/div&gt;" style="text;strokeColor=none;fillColor=none;align=left;verticalAlign=top;spacingLeft=4;spacingRight=4;overflow=hidden;rotatable=0;points=[[0,0.5],[1,0.5]];portConstraint=eastwest;whiteSpace=wrap;html=1;" parent="4IVgv2YwJj3yk9_aXbhd-57" vertex="1">
          <mxGeometry y="40" width="170" height="50" as="geometry" />
        </mxCell>
        <mxCell id="4IVgv2YwJj3yk9_aXbhd-59" value="" style="line;strokeWidth=1;fillColor=none;align=left;verticalAlign=middle;spacingTop=-1;spacingLeft=3;spacingRight=3;rotatable=0;labelPosition=right;points=[];portConstraint=eastwest;strokeColor=inherit;" parent="4IVgv2YwJj3yk9_aXbhd-57" vertex="1">
          <mxGeometry y="90" width="170" height="40" as="geometry" />
        </mxCell>
        <mxCell id="4IVgv2YwJj3yk9_aXbhd-63" value="&lt;div&gt;&lt;i style=&quot;font-weight: 400;&quot;&gt;&amp;lt;&amp;lt;Enum&amp;gt;&amp;gt;&lt;/i&gt;&lt;br&gt;&lt;/div&gt;CurrencyCode" style="swimlane;fontStyle=1;align=center;verticalAlign=top;childLayout=stackLayout;horizontal=1;startSize=40;horizontalStack=0;resizeParent=1;resizeParentMax=0;resizeLast=0;collapsible=1;marginBottom=0;whiteSpace=wrap;html=1;" parent="1" vertex="1">
          <mxGeometry x="394" y="700" width="170" height="130" as="geometry">
            <mxRectangle x="205" y="40" width="130" height="30" as="alternateBounds" />
          </mxGeometry>
        </mxCell>
        <mxCell id="4IVgv2YwJj3yk9_aXbhd-64" value="USD&lt;div&gt;COP&lt;/div&gt;" style="text;strokeColor=none;fillColor=none;align=left;verticalAlign=top;spacingLeft=4;spacingRight=4;overflow=hidden;rotatable=0;points=[[0,0.5],[1,0.5]];portConstraint=eastwest;whiteSpace=wrap;html=1;" parent="4IVgv2YwJj3yk9_aXbhd-63" vertex="1">
          <mxGeometry y="40" width="170" height="50" as="geometry" />
        </mxCell>
        <mxCell id="4IVgv2YwJj3yk9_aXbhd-65" value="" style="line;strokeWidth=1;fillColor=none;align=left;verticalAlign=middle;spacingTop=-1;spacingLeft=3;spacingRight=3;rotatable=0;labelPosition=right;points=[];portConstraint=eastwest;strokeColor=inherit;" parent="4IVgv2YwJj3yk9_aXbhd-63" vertex="1">
          <mxGeometry y="90" width="170" height="40" as="geometry" />
        </mxCell>
        <mxCell id="4IVgv2YwJj3yk9_aXbhd-67" value="1" style="text;html=1;align=center;verticalAlign=middle;resizable=0;points=[];autosize=1;strokeColor=none;fillColor=none;" parent="1" vertex="1">
          <mxGeometry x="364" y="735" width="30" height="30" as="geometry" />
        </mxCell>
        <mxCell id="4IVgv2YwJj3yk9_aXbhd-68" value="0..*" style="text;html=1;align=center;verticalAlign=middle;resizable=0;points=[];autosize=1;strokeColor=none;fillColor=none;" parent="1" vertex="1">
          <mxGeometry x="264" y="520" width="40" height="30" as="geometry" />
        </mxCell>
        <mxCell id="i_zmqgEO7VjL27VZgSfz-4" style="edgeStyle=orthogonalEdgeStyle;rounded=0;orthogonalLoop=1;jettySize=auto;html=1;" parent="1" source="E6XDSwYtZxgFJLBzwyTR-1" target="i_zmqgEO7VjL27VZgSfz-1" edge="1">
          <mxGeometry relative="1" as="geometry" />
        </mxCell>
        <mxCell id="E6XDSwYtZxgFJLBzwyTR-1" value="Account" style="swimlane;fontStyle=1;align=center;verticalAlign=top;childLayout=stackLayout;horizontal=1;startSize=26;horizontalStack=0;resizeParent=1;resizeParentMax=0;resizeLast=0;collapsible=1;marginBottom=0;whiteSpace=wrap;html=1;" parent="1" vertex="1">
          <mxGeometry x="94" y="445" width="170" height="140" as="geometry" />
        </mxCell>
        <mxCell id="E6XDSwYtZxgFJLBzwyTR-2" value="- id: string&lt;div&gt;- name: string&lt;br&gt;&lt;div&gt;- balance: number&lt;/div&gt;&lt;/div&gt;" style="text;strokeColor=none;fillColor=none;align=left;verticalAlign=top;spacingLeft=4;spacingRight=4;overflow=hidden;rotatable=0;points=[[0,0.5],[1,0.5]];portConstraint=eastwest;whiteSpace=wrap;html=1;" parent="E6XDSwYtZxgFJLBzwyTR-1" vertex="1">
          <mxGeometry y="26" width="170" height="74" as="geometry" />
        </mxCell>
        <mxCell id="E6XDSwYtZxgFJLBzwyTR-3" value="" style="line;strokeWidth=1;fillColor=none;align=left;verticalAlign=middle;spacingTop=-1;spacingLeft=3;spacingRight=3;rotatable=0;labelPosition=right;points=[];portConstraint=eastwest;strokeColor=inherit;" parent="E6XDSwYtZxgFJLBzwyTR-1" vertex="1">
          <mxGeometry y="100" width="170" height="40" as="geometry" />
        </mxCell>
        <mxCell id="E6XDSwYtZxgFJLBzwyTR-6" value="1" style="text;html=1;align=center;verticalAlign=middle;resizable=0;points=[];autosize=1;strokeColor=none;fillColor=none;" parent="1" vertex="1">
          <mxGeometry x="179" y="415" width="30" height="30" as="geometry" />
        </mxCell>
        <mxCell id="qzz9vTHvMLFRcsr79LCF-2" style="edgeStyle=orthogonalEdgeStyle;rounded=0;orthogonalLoop=1;jettySize=auto;html=1;exitX=0.5;exitY=1;exitDx=0;exitDy=0;entryX=0.5;entryY=0;entryDx=0;entryDy=0;" parent="1" source="E6XDSwYtZxgFJLBzwyTR-8" target="4IVgv2YwJj3yk9_aXbhd-63" edge="1">
          <mxGeometry relative="1" as="geometry" />
        </mxCell>
        <mxCell id="E6XDSwYtZxgFJLBzwyTR-8" value="User" style="swimlane;fontStyle=1;align=center;verticalAlign=top;childLayout=stackLayout;horizontal=1;startSize=26;horizontalStack=0;resizeParent=1;resizeParentMax=0;resizeLast=0;collapsible=1;marginBottom=0;whiteSpace=wrap;html=1;" parent="1" vertex="1">
          <mxGeometry x="399" y="430" width="160" height="170" as="geometry" />
        </mxCell>
        <mxCell id="E6XDSwYtZxgFJLBzwyTR-9" value="- id: string&lt;div&gt;- name: string&lt;br&gt;&lt;div&gt;- email: string&lt;/div&gt;&lt;/div&gt;&lt;div&gt;- picture: string&lt;/div&gt;" style="text;strokeColor=none;fillColor=none;align=left;verticalAlign=top;spacingLeft=4;spacingRight=4;overflow=hidden;rotatable=0;points=[[0,0.5],[1,0.5]];portConstraint=eastwest;whiteSpace=wrap;html=1;" parent="E6XDSwYtZxgFJLBzwyTR-8" vertex="1">
          <mxGeometry y="26" width="160" height="104" as="geometry" />
        </mxCell>
        <mxCell id="E6XDSwYtZxgFJLBzwyTR-10" value="" style="line;strokeWidth=1;fillColor=none;align=left;verticalAlign=middle;spacingTop=-1;spacingLeft=3;spacingRight=3;rotatable=0;labelPosition=right;points=[];portConstraint=eastwest;strokeColor=inherit;" parent="E6XDSwYtZxgFJLBzwyTR-8" vertex="1">
          <mxGeometry y="130" width="160" height="40" as="geometry" />
        </mxCell>
        <mxCell id="E6XDSwYtZxgFJLBzwyTR-13" value="0..*" style="text;html=1;align=center;verticalAlign=middle;resizable=0;points=[];autosize=1;strokeColor=none;fillColor=none;" parent="1" vertex="1">
          <mxGeometry x="264" y="478" width="40" height="30" as="geometry" />
        </mxCell>
        <mxCell id="E6XDSwYtZxgFJLBzwyTR-14" value="1" style="text;html=1;align=center;verticalAlign=middle;resizable=0;points=[];autosize=1;strokeColor=none;fillColor=none;" parent="1" vertex="1">
          <mxGeometry x="369" y="478" width="30" height="30" as="geometry" />
        </mxCell>
        <mxCell id="HKFmsxtZMBqY3XFtCL7B-4" style="edgeStyle=orthogonalEdgeStyle;rounded=0;orthogonalLoop=1;jettySize=auto;html=1;exitX=1;exitY=0.75;exitDx=0;exitDy=0;entryX=0;entryY=0.5;entryDx=0;entryDy=0;" parent="1" source="E6XDSwYtZxgFJLBzwyTR-1" target="4IVgv2YwJj3yk9_aXbhd-64" edge="1">
          <mxGeometry relative="1" as="geometry">
            <Array as="points">
              <mxPoint x="331" y="550" />
              <mxPoint x="331" y="765" />
            </Array>
          </mxGeometry>
        </mxCell>
        <mxCell id="HKFmsxtZMBqY3XFtCL7B-6" value="0..*" style="text;html=1;align=center;verticalAlign=middle;resizable=0;points=[];autosize=1;strokeColor=none;fillColor=none;" parent="1" vertex="1">
          <mxGeometry x="264" y="250" width="40" height="30" as="geometry" />
        </mxCell>
        <mxCell id="HKFmsxtZMBqY3XFtCL7B-7" value="1" style="text;html=1;align=center;verticalAlign=middle;resizable=0;points=[];autosize=1;strokeColor=none;fillColor=none;" parent="1" vertex="1">
          <mxGeometry x="429" y="400" width="30" height="30" as="geometry" />
        </mxCell>
        <mxCell id="Uoa0D3wc2wCWtFt8kNzC-2" value="1" style="text;html=1;align=center;verticalAlign=middle;resizable=0;points=[];autosize=1;strokeColor=none;fillColor=none;" parent="1" vertex="1">
          <mxGeometry x="491" y="400" width="30" height="30" as="geometry" />
        </mxCell>
        <mxCell id="Uoa0D3wc2wCWtFt8kNzC-3" value="0..*" style="text;html=1;align=center;verticalAlign=middle;resizable=0;points=[];autosize=1;strokeColor=none;fillColor=none;" parent="1" vertex="1">
          <mxGeometry x="492" y="259" width="40" height="30" as="geometry" />
        </mxCell>
        <mxCell id="ZD57u5LpEhazBJ8pezvG-1" value="&lt;div&gt;&lt;i style=&quot;font-weight: 400;&quot;&gt;&amp;lt;&amp;lt;Enum&amp;gt;&amp;gt;&lt;/i&gt;&lt;br&gt;&lt;/div&gt;AuthenticationProviderStatus" style="swimlane;fontStyle=1;align=center;verticalAlign=top;childLayout=stackLayout;horizontal=1;startSize=40;horizontalStack=0;resizeParent=1;resizeParentMax=0;resizeLast=0;collapsible=1;marginBottom=0;whiteSpace=wrap;html=1;" parent="1" vertex="1">
          <mxGeometry x="1070" y="443" width="200" height="130" as="geometry">
            <mxRectangle x="205" y="40" width="130" height="30" as="alternateBounds" />
          </mxGeometry>
        </mxCell>
        <mxCell id="ZD57u5LpEhazBJ8pezvG-2" value="&lt;div&gt;ACTIVE&lt;/div&gt;&lt;div&gt;UNVERIFIED&lt;/div&gt;&lt;div&gt;VERIFIED_NO_PASSWORD&lt;/div&gt;&lt;div&gt;&lt;br&gt;&lt;/div&gt;" style="text;strokeColor=none;fillColor=none;align=left;verticalAlign=top;spacingLeft=4;spacingRight=4;overflow=hidden;rotatable=0;points=[[0,0.5],[1,0.5]];portConstraint=eastwest;whiteSpace=wrap;html=1;" parent="ZD57u5LpEhazBJ8pezvG-1" vertex="1">
          <mxGeometry y="40" width="200" height="50" as="geometry" />
        </mxCell>
        <mxCell id="ZD57u5LpEhazBJ8pezvG-3" value="" style="line;strokeWidth=1;fillColor=none;align=left;verticalAlign=middle;spacingTop=-1;spacingLeft=3;spacingRight=3;rotatable=0;labelPosition=right;points=[];portConstraint=eastwest;strokeColor=inherit;" parent="ZD57u5LpEhazBJ8pezvG-1" vertex="1">
          <mxGeometry y="90" width="200" height="40" as="geometry" />
        </mxCell>
        <mxCell id="ZD57u5LpEhazBJ8pezvG-5" value="0..*" style="text;html=1;align=center;verticalAlign=middle;resizable=0;points=[];autosize=1;strokeColor=none;fillColor=none;" parent="1" vertex="1">
          <mxGeometry x="931" y="478" width="40" height="30" as="geometry" />
        </mxCell>
        <mxCell id="ZD57u5LpEhazBJ8pezvG-6" value="1" style="text;html=1;align=center;verticalAlign=middle;resizable=0;points=[];autosize=1;strokeColor=none;fillColor=none;" parent="1" vertex="1">
          <mxGeometry x="1041" y="478" width="30" height="30" as="geometry" />
        </mxCell>
        <mxCell id="GtB9pWS0f8hiLUgauO-V-2" style="edgeStyle=orthogonalEdgeStyle;rounded=0;orthogonalLoop=1;jettySize=auto;html=1;" parent="1" source="E6XDSwYtZxgFJLBzwyTR-2" target="E6XDSwYtZxgFJLBzwyTR-9" edge="1">
          <mxGeometry relative="1" as="geometry" />
        </mxCell>
        <mxCell id="p6ty_ED9nkUPZI39vZnu-7" style="edgeStyle=orthogonalEdgeStyle;rounded=0;orthogonalLoop=1;jettySize=auto;html=1;entryX=0.5;entryY=0;entryDx=0;entryDy=0;exitX=0.5;exitY=1;exitDx=0;exitDy=0;" parent="1" source="p6ty_ED9nkUPZI39vZnu-1" target="p6ty_ED9nkUPZI39vZnu-4" edge="1">
          <mxGeometry relative="1" as="geometry">
            <mxPoint x="815" y="690" as="sourcePoint" />
          </mxGeometry>
        </mxCell>
        <mxCell id="p6ty_ED9nkUPZI39vZnu-1" value="AuthenticationProvider" style="swimlane;fontStyle=1;align=center;verticalAlign=top;childLayout=stackLayout;horizontal=1;startSize=26;horizontalStack=0;resizeParent=1;resizeParentMax=0;resizeLast=0;collapsible=1;marginBottom=0;whiteSpace=wrap;html=1;" parent="1" vertex="1">
          <mxGeometry x="697" y="385" width="234" height="260" as="geometry" />
        </mxCell>
        <mxCell id="p6ty_ED9nkUPZI39vZnu-2" value="- id: string&lt;div&gt;&lt;div&gt;-&amp;nbsp;&lt;span style=&quot;font-family: var(--ds-font-family-code); font-size: 12.573px; background-color: transparent; color: light-dark(rgb(0, 0, 0), rgb(255, 255, 255));&quot;&gt;providerUserId&lt;/span&gt;&lt;span style=&quot;background-color: transparent; color: light-dark(rgb(0, 0, 0), rgb(255, 255, 255));&quot;&gt;: string&lt;/span&gt;&lt;br&gt;&lt;/div&gt;&lt;/div&gt;&lt;div&gt;&lt;div&gt;- activationCode: string&lt;/div&gt;&lt;div&gt;- activationCodeExpiresAt: Date&lt;/div&gt;&lt;div&gt;- activationCodeResendAt: Date&lt;/div&gt;&lt;div&gt;- activationCodeRetries: number&lt;/div&gt;&lt;/div&gt;&lt;div&gt;- refreshToken: string&lt;/div&gt;&lt;div&gt;- password: string&lt;/div&gt;&lt;div&gt;- setPasswordToken: string&lt;br&gt;&lt;div&gt;- setPasswordExpiresAt: Date&lt;/div&gt;&lt;div&gt;- setPasswordRetries: number&lt;/div&gt;&lt;div&gt;- setPasswordLastSentAt: Date&lt;/div&gt;&lt;/div&gt;" style="text;strokeColor=none;fillColor=none;align=left;verticalAlign=top;spacingLeft=4;spacingRight=4;overflow=hidden;rotatable=0;points=[[0,0.5],[1,0.5]];portConstraint=eastwest;whiteSpace=wrap;html=1;" parent="p6ty_ED9nkUPZI39vZnu-1" vertex="1">
          <mxGeometry y="26" width="234" height="194" as="geometry" />
        </mxCell>
        <mxCell id="p6ty_ED9nkUPZI39vZnu-3" value="" style="line;strokeWidth=1;fillColor=none;align=left;verticalAlign=middle;spacingTop=-1;spacingLeft=3;spacingRight=3;rotatable=0;labelPosition=right;points=[];portConstraint=eastwest;strokeColor=inherit;" parent="p6ty_ED9nkUPZI39vZnu-1" vertex="1">
          <mxGeometry y="220" width="234" height="40" as="geometry" />
        </mxCell>
        <mxCell id="p6ty_ED9nkUPZI39vZnu-4" value="&lt;div&gt;&lt;i style=&quot;font-weight: 400;&quot;&gt;&amp;lt;&amp;lt;Enum&amp;gt;&amp;gt;&lt;/i&gt;&lt;br&gt;&lt;/div&gt;Authentication&lt;span style=&quot;background-color: transparent; color: light-dark(rgb(0, 0, 0), rgb(255, 255, 255));&quot;&gt;ProviderType&lt;/span&gt;" style="swimlane;fontStyle=1;align=center;verticalAlign=top;childLayout=stackLayout;horizontal=1;startSize=40;horizontalStack=0;resizeParent=1;resizeParentMax=0;resizeLast=0;collapsible=1;marginBottom=0;whiteSpace=wrap;html=1;" parent="1" vertex="1">
          <mxGeometry x="712" y="740" width="204" height="130" as="geometry">
            <mxRectangle x="205" y="40" width="130" height="30" as="alternateBounds" />
          </mxGeometry>
        </mxCell>
        <mxCell id="p6ty_ED9nkUPZI39vZnu-5" value="&lt;div&gt;EMAIL&lt;/div&gt;&lt;div&gt;GOOGLE&lt;/div&gt;" style="text;strokeColor=none;fillColor=none;align=left;verticalAlign=top;spacingLeft=4;spacingRight=4;overflow=hidden;rotatable=0;points=[[0,0.5],[1,0.5]];portConstraint=eastwest;whiteSpace=wrap;html=1;" parent="p6ty_ED9nkUPZI39vZnu-4" vertex="1">
          <mxGeometry y="40" width="204" height="50" as="geometry" />
        </mxCell>
        <mxCell id="p6ty_ED9nkUPZI39vZnu-6" value="" style="line;strokeWidth=1;fillColor=none;align=left;verticalAlign=middle;spacingTop=-1;spacingLeft=3;spacingRight=3;rotatable=0;labelPosition=right;points=[];portConstraint=eastwest;strokeColor=inherit;" parent="p6ty_ED9nkUPZI39vZnu-4" vertex="1">
          <mxGeometry y="90" width="204" height="40" as="geometry" />
        </mxCell>
        <mxCell id="p6ty_ED9nkUPZI39vZnu-8" value="1" style="text;html=1;align=center;verticalAlign=middle;resizable=0;points=[];autosize=1;strokeColor=none;fillColor=none;" parent="1" vertex="1">
          <mxGeometry x="784" y="710" width="30" height="30" as="geometry" />
        </mxCell>
        <mxCell id="p6ty_ED9nkUPZI39vZnu-9" value="0..*" style="text;html=1;align=center;verticalAlign=middle;resizable=0;points=[];autosize=1;strokeColor=none;fillColor=none;" parent="1" vertex="1">
          <mxGeometry x="774" y="645" width="40" height="30" as="geometry" />
        </mxCell>
        <mxCell id="p6ty_ED9nkUPZI39vZnu-10" style="edgeStyle=orthogonalEdgeStyle;rounded=0;orthogonalLoop=1;jettySize=auto;html=1;exitX=0;exitY=0.5;exitDx=0;exitDy=0;entryX=1;entryY=0.5;entryDx=0;entryDy=0;" parent="1" source="p6ty_ED9nkUPZI39vZnu-2" target="E6XDSwYtZxgFJLBzwyTR-9" edge="1">
          <mxGeometry relative="1" as="geometry" />
        </mxCell>
        <mxCell id="p6ty_ED9nkUPZI39vZnu-11" value="1" style="text;html=1;align=center;verticalAlign=middle;resizable=0;points=[];autosize=1;strokeColor=none;fillColor=none;" parent="1" vertex="1">
          <mxGeometry x="559" y="478" width="30" height="30" as="geometry" />
        </mxCell>
        <mxCell id="p6ty_ED9nkUPZI39vZnu-12" value="1..*" style="text;html=1;align=center;verticalAlign=middle;resizable=0;points=[];autosize=1;strokeColor=none;fillColor=none;" parent="1" vertex="1">
          <mxGeometry x="658" y="478" width="40" height="30" as="geometry" />
        </mxCell>
        <mxCell id="Zyi1jI88KUTKUBiFstPU-3" style="edgeStyle=orthogonalEdgeStyle;rounded=0;orthogonalLoop=1;jettySize=auto;html=1;exitX=0.75;exitY=1;exitDx=0;exitDy=0;entryX=0.573;entryY=-0.005;entryDx=0;entryDy=0;entryPerimeter=0;" parent="1" source="4IVgv2YwJj3yk9_aXbhd-19" target="E6XDSwYtZxgFJLBzwyTR-8" edge="1">
          <mxGeometry relative="1" as="geometry">
            <mxPoint x="491" y="380" as="targetPoint" />
          </mxGeometry>
        </mxCell>
        <mxCell id="21RGkuv4sAFXuKDQ0Lcb-1" style="edgeStyle=orthogonalEdgeStyle;rounded=0;orthogonalLoop=1;jettySize=auto;html=1;entryX=0;entryY=0.5;entryDx=0;entryDy=0;" parent="1" source="p6ty_ED9nkUPZI39vZnu-2" target="ZD57u5LpEhazBJ8pezvG-2" edge="1">
          <mxGeometry relative="1" as="geometry" />
        </mxCell>
        <mxCell id="0h29m-L7SLsWld9X3bA5-1" style="edgeStyle=orthogonalEdgeStyle;rounded=0;orthogonalLoop=1;jettySize=auto;html=1;exitX=1;exitY=0.5;exitDx=0;exitDy=0;entryX=0.375;entryY=-0.006;entryDx=0;entryDy=0;entryPerimeter=0;" parent="1" source="4IVgv2YwJj3yk9_aXbhd-2" target="E6XDSwYtZxgFJLBzwyTR-8" edge="1">
          <mxGeometry relative="1" as="geometry">
            <Array as="points">
              <mxPoint x="264" y="280" />
              <mxPoint x="459" y="280" />
            </Array>
          </mxGeometry>
        </mxCell>
        <mxCell id="i_zmqgEO7VjL27VZgSfz-1" value="&lt;div&gt;&lt;span style=&quot;background-color: transparent; color: light-dark(rgb(0, 0, 0), rgb(255, 255, 255));&quot;&gt;AccountType&lt;/span&gt;&lt;/div&gt;" style="swimlane;fontStyle=1;align=center;verticalAlign=top;childLayout=stackLayout;horizontal=1;startSize=30;horizontalStack=0;resizeParent=1;resizeParentMax=0;resizeLast=0;collapsible=1;marginBottom=0;whiteSpace=wrap;html=1;" parent="1" vertex="1">
          <mxGeometry x="94" y="700" width="170" height="120" as="geometry">
            <mxRectangle x="205" y="40" width="130" height="30" as="alternateBounds" />
          </mxGeometry>
        </mxCell>
        <mxCell id="i_zmqgEO7VjL27VZgSfz-2" value="- id: string&lt;div&gt;- name: string&lt;/div&gt;" style="text;strokeColor=none;fillColor=none;align=left;verticalAlign=top;spacingLeft=4;spacingRight=4;overflow=hidden;rotatable=0;points=[[0,0.5],[1,0.5]];portConstraint=eastwest;whiteSpace=wrap;html=1;" parent="i_zmqgEO7VjL27VZgSfz-1" vertex="1">
          <mxGeometry y="30" width="170" height="50" as="geometry" />
        </mxCell>
        <mxCell id="i_zmqgEO7VjL27VZgSfz-3" value="" style="line;strokeWidth=1;fillColor=none;align=left;verticalAlign=middle;spacingTop=-1;spacingLeft=3;spacingRight=3;rotatable=0;labelPosition=right;points=[];portConstraint=eastwest;strokeColor=inherit;" parent="i_zmqgEO7VjL27VZgSfz-1" vertex="1">
          <mxGeometry y="80" width="170" height="40" as="geometry" />
        </mxCell>
        <mxCell id="i_zmqgEO7VjL27VZgSfz-5" value="1" style="text;html=1;align=center;verticalAlign=middle;resizable=0;points=[];autosize=1;strokeColor=none;fillColor=none;" parent="1" vertex="1">
          <mxGeometry x="179" y="670" width="30" height="30" as="geometry" />
        </mxCell>
        <mxCell id="i_zmqgEO7VjL27VZgSfz-6" value="0..*" style="text;html=1;align=center;verticalAlign=middle;resizable=0;points=[];autosize=1;strokeColor=none;fillColor=none;" parent="1" vertex="1">
          <mxGeometry x="178" y="584" width="40" height="30" as="geometry" />
        </mxCell>
        <mxCell id="XWxssrTGbIHwClmgR3RE-1" style="edgeStyle=orthogonalEdgeStyle;rounded=0;orthogonalLoop=1;jettySize=auto;html=1;entryX=0;entryY=0.5;entryDx=0;entryDy=0;" parent="1" source="4IVgv2YwJj3yk9_aXbhd-20" target="4IVgv2YwJj3yk9_aXbhd-58" edge="1">
          <mxGeometry relative="1" as="geometry" />
        </mxCell>
        <mxCell id="XWxssrTGbIHwClmgR3RE-3" value="1" style="text;html=1;align=center;verticalAlign=middle;resizable=0;points=[];autosize=1;strokeColor=none;fillColor=none;" parent="1" vertex="1">
          <mxGeometry x="612" y="152" width="30" height="30" as="geometry" />
        </mxCell>
        <mxCell id="XWxssrTGbIHwClmgR3RE-4" value="0..*" style="text;html=1;align=center;verticalAlign=middle;resizable=0;points=[];autosize=1;strokeColor=none;fillColor=none;" parent="1" vertex="1">
          <mxGeometry x="533" y="152" width="40" height="30" as="geometry" />
        </mxCell>
        <mxCell id="giLxtFIxru5S8UG1Ptxc-2" value="1" style="text;html=1;align=center;verticalAlign=middle;resizable=0;points=[];autosize=1;strokeColor=none;fillColor=none;" parent="1" vertex="1">
          <mxGeometry x="64" y="151" width="30" height="30" as="geometry" />
        </mxCell>
        <mxCell id="giLxtFIxru5S8UG1Ptxc-3" value="0..1" style="text;html=1;align=center;verticalAlign=middle;resizable=0;points=[];autosize=1;strokeColor=none;fillColor=none;" parent="1" vertex="1">
          <mxGeometry x="180" y="54" width="40" height="30" as="geometry" />
        </mxCell>
        <mxCell id="qzz9vTHvMLFRcsr79LCF-3" value="1" style="text;html=1;align=center;verticalAlign=middle;resizable=0;points=[];autosize=1;strokeColor=none;fillColor=none;" parent="1" vertex="1">
          <mxGeometry x="479" y="670" width="30" height="30" as="geometry" />
        </mxCell>
        <mxCell id="qzz9vTHvMLFRcsr79LCF-4" value="0..*" style="text;html=1;align=center;verticalAlign=middle;resizable=0;points=[];autosize=1;strokeColor=none;fillColor=none;" parent="1" vertex="1">
          <mxGeometry x="479" y="600" width="40" height="30" as="geometry" />
        </mxCell>
        <mxCell id="EvDaNptRsy9-H6BZaDKJ-1" value="&lt;div&gt;&lt;i style=&quot;font-weight: 400;&quot;&gt;&amp;lt;&amp;lt;Enum&amp;gt;&amp;gt;&lt;/i&gt;&lt;br&gt;&lt;/div&gt;AccountCategory" style="swimlane;fontStyle=1;align=center;verticalAlign=top;childLayout=stackLayout;horizontal=1;startSize=40;horizontalStack=0;resizeParent=1;resizeParentMax=0;resizeLast=0;collapsible=1;marginBottom=0;whiteSpace=wrap;html=1;" vertex="1" parent="1">
          <mxGeometry x="-217" y="695" width="170" height="120" as="geometry">
            <mxRectangle x="205" y="40" width="130" height="30" as="alternateBounds" />
          </mxGeometry>
        </mxCell>
        <mxCell id="EvDaNptRsy9-H6BZaDKJ-2" value="ASSET&lt;div&gt;LIABILITY&lt;/div&gt;" style="text;strokeColor=none;fillColor=none;align=left;verticalAlign=top;spacingLeft=4;spacingRight=4;overflow=hidden;rotatable=0;points=[[0,0.5],[1,0.5]];portConstraint=eastwest;whiteSpace=wrap;html=1;" vertex="1" parent="EvDaNptRsy9-H6BZaDKJ-1">
          <mxGeometry y="40" width="170" height="40" as="geometry" />
        </mxCell>
        <mxCell id="EvDaNptRsy9-H6BZaDKJ-3" value="" style="line;strokeWidth=1;fillColor=none;align=left;verticalAlign=middle;spacingTop=-1;spacingLeft=3;spacingRight=3;rotatable=0;labelPosition=right;points=[];portConstraint=eastwest;strokeColor=inherit;" vertex="1" parent="EvDaNptRsy9-H6BZaDKJ-1">
          <mxGeometry y="80" width="170" height="40" as="geometry" />
        </mxCell>
        <mxCell id="EvDaNptRsy9-H6BZaDKJ-4" style="edgeStyle=orthogonalEdgeStyle;rounded=0;orthogonalLoop=1;jettySize=auto;html=1;" edge="1" parent="1" source="i_zmqgEO7VjL27VZgSfz-2" target="EvDaNptRsy9-H6BZaDKJ-2">
          <mxGeometry relative="1" as="geometry" />
        </mxCell>
        <mxCell id="EvDaNptRsy9-H6BZaDKJ-5" value="0..1" style="text;html=1;align=center;verticalAlign=middle;resizable=0;points=[];autosize=1;strokeColor=none;fillColor=none;" vertex="1" parent="1">
          <mxGeometry x="54" y="725" width="40" height="30" as="geometry" />
        </mxCell>
        <mxCell id="EvDaNptRsy9-H6BZaDKJ-6" value="1" style="text;html=1;align=center;verticalAlign=middle;resizable=0;points=[];autosize=1;strokeColor=none;fillColor=none;" vertex="1" parent="1">
          <mxGeometry x="-47" y="725" width="30" height="30" as="geometry" />
        </mxCell>
      </root>
    </mxGraphModel>
  </diagram>
</mxfile>
